<svg width="512" height="67" viewBox="0 0 512 67" fill="none" xmlns="http://www.w3.org/2000/svg">
    <path d="M0 17C0 7.61116 7.61116 0 17 0H495C504.389 0 512 7.61116 512 17V50C512 59.3888 504.389 67 495 67H17C7.61116 67 0 59.3888 0 50V17Z" fill="#15151b"/>
    <path d="M211.242 36.0749L196.477 49H226.007L211.242 36.0749Z" fill="white"/>
    <path d="M211.242 18L194 49H195.09L211.242 34.6612L227.394 49H228.484L211.242 18Z" fill="white"/>
    <path d="M244.012 38.3828C243.537 38.9512 242.866 39.3936 241.999 39.71C241.132 40.0205 240.171 40.1758 239.116 40.1758C238.009 40.1758 237.036 39.9355 236.198 39.4551C235.366 38.9688 234.722 38.2656 234.265 37.3457C233.814 36.4258 233.582 35.3447 233.57 34.1025V33.2324C233.57 31.9551 233.784 30.8506 234.212 29.9189C234.645 28.9814 235.267 28.2666 236.075 27.7744C236.89 27.2764 237.842 27.0273 238.932 27.0273C240.449 27.0273 241.636 27.3906 242.491 28.1172C243.347 28.8379 243.854 29.8896 244.012 31.2725H241.445C241.328 30.54 241.067 30.0039 240.663 29.6641C240.265 29.3242 239.714 29.1543 239.011 29.1543C238.114 29.1543 237.432 29.4912 236.963 30.165C236.494 30.8389 236.257 31.8408 236.251 33.1709V33.9883C236.251 35.3301 236.506 36.3438 237.016 37.0293C237.525 37.7148 238.273 38.0576 239.257 38.0576C240.247 38.0576 240.953 37.8467 241.375 37.4248V35.2188H238.976V33.2764H244.012V38.3828Z" fill="white"/>
    <path d="M253.855 34.4541H248.793V37.8818H254.734V40H246.156V27.2031H254.717V29.3389H248.793V32.3887H253.855V34.4541Z" fill="white"/>
    <path d="M266.688 40H264.051L258.918 31.5801V40H256.281V27.2031H258.918L264.06 35.6406V27.2031H266.688V40Z" fill="white"/>
    <path d="M275.626 36.6426C275.626 36.1445 275.45 35.7637 275.099 35.5C274.747 35.2305 274.114 34.9492 273.2 34.6562C272.286 34.3574 271.562 34.0645 271.029 33.7773C269.576 32.9922 268.85 31.9346 268.85 30.6045C268.85 29.9131 269.043 29.2979 269.43 28.7588C269.822 28.2139 270.382 27.7891 271.108 27.4844C271.841 27.1797 272.661 27.0273 273.569 27.0273C274.483 27.0273 275.298 27.1943 276.013 27.5283C276.727 27.8565 277.281 28.3223 277.674 28.9258C278.072 29.5293 278.271 30.2148 278.271 30.9824H275.635C275.635 30.3965 275.45 29.9424 275.081 29.6201C274.712 29.292 274.193 29.1279 273.525 29.1279C272.881 29.1279 272.38 29.2656 272.022 29.541C271.665 29.8105 271.486 30.168 271.486 30.6133C271.486 31.0293 271.694 31.3779 272.11 31.6592C272.532 31.9404 273.15 32.2041 273.965 32.4502C275.465 32.9014 276.558 33.4609 277.243 34.1289C277.929 34.7969 278.271 35.6289 278.271 36.625C278.271 37.7324 277.852 38.6025 277.015 39.2354C276.177 39.8623 275.049 40.1758 273.631 40.1758C272.646 40.1758 271.75 39.9971 270.941 39.6396C270.133 39.2764 269.515 38.7812 269.087 38.1543C268.665 37.5273 268.454 36.8008 268.454 35.9746H271.1C271.1 37.3867 271.943 38.0928 273.631 38.0928C274.258 38.0928 274.747 37.9668 275.099 37.7148C275.45 37.457 275.626 37.0996 275.626 36.6426Z" fill="white"/>
    <path d="M287.764 34.4541H282.701V37.8818H288.643V40H280.065V27.2031H288.625V29.3389H282.701V32.3887H287.764V34.4541Z" fill="white"/>
    <path d="M299.998 29.3389H296.078V40H293.441V29.3389H289.574V27.2031H299.998V29.3389Z" fill="white"/>
    <path d="M304.313 40H301.677V27.2031H304.313V40Z" fill="white"/>
    <path d="M311.503 31.6152L313.902 27.2031H316.935L313.208 33.5488L317.031 40H313.964L311.503 35.5176L309.042 40H305.975L309.798 33.5488L306.071 27.2031H309.104L311.503 31.6152Z" fill="white"/>
</svg>
